Into The Abyss 2011 DVDSCR XViD DTRG

Format : AVI
Format/Info : Audio Video Interleave
File size : 1.05 GiB
Duration : 1h 48mn
Overall bit rate : 1 377 Kbps
Writing application : VirtualDubMod 1.5.10.2 (build 2540/release)
Writing library : VirtualDubMod build 2540/release

Video
ID : 0
Format : MPEG-4 Visual
Format profile : Advanced Simple@L5
Format settings, BVOP : 2
Format settings, QPel : No
Format settings, GMC : No warppoints
Format settings, Matrix : Default (H.263)
Muxing mode : Packed bitstream
Codec ID : XVID
Codec ID/Hint : XviD
Duration : 1h 48mn
Bit rate : 1 173 Kbps
Width : 720 pixels
Height : 400 pixels
Display aspect ratio : 16:9
Frame rate : 29.970 fps
Color space : YUV
Chroma subsampling : 4:2:0
Bit depth : 8 bits
Scan type : Progressive
Compression mode : Lossy
Bits/(Pixel*Frame) : 0.136
Stream size : 912 MiB (85%)
Writing library : XviD 64

Audio
ID : 1
Format : AC-3
Format/Info : Audio Coding 3
Mode extension : CM (complete main)
Codec ID : 2000
Duration : 1h 48mn
Bit rate mode : Constant
Bit rate : 192 Kbps
Channel(s) : 2 channels
Channel positions : Front: L R
Sampling rate : 48.0 KHz
Bit depth : 16 bits
Compression mode : Lossy
Stream size : 149 MiB (14%)
Alignment : Split accross interleaves
Interleave, duration : 33 ms (1.00 video frame)
Interleave, preload duration : 500 ms

 
http://www.imdb.com/title/tt1972663/


Source Used:

INTO_THE_ABYSS-2011-DVDSCR MKV............Thanks

Was a badly interlaced wrong sized mkv file so thought damn n blasted it have a 
go at sorting it ..........


Poster:

 
http://i.imgur.com/5syy6.jpg


Screenshots:

 
http://i.imgur.com/3XDTG.jpg


ENJOY!